<?xml version="1.0" encoding="UTF-8" standalone="no"?>
<!-- Created with Inkscape (http://www.inkscape.org/) -->

<svg
   width="209.62347mm"
   height="71.705002mm"
   viewBox="0 0 209.62347 71.705002"
   version="1.1"
   id="svg1"
   inkscape:version="1.3.2 (091e20e, 2023-11-25, custom)"
   sodipodi:docname="Stroke-1.svg"
   inkscape:export-filename="..\..\..\..\..\bitmap.png"
   inkscape:export-xdpi="96"
   inkscape:export-ydpi="96"
   xmlns:inkscape="http://www.inkscape.org/namespaces/inkscape"
   xmlns:sodipodi="http://sodipodi.sourceforge.net/DTD/sodipodi-0.dtd"
   xmlns="http://www.w3.org/2000/svg"
   xmlns:svg="http://www.w3.org/2000/svg">
  <sodipodi:namedview
     id="namedview1"
     pagecolor="#ffffff"
     bordercolor="#000000"
     borderopacity="0.25"
     inkscape:showpageshadow="2"
     inkscape:pageopacity="0.0"
     inkscape:pagecheckerboard="0"
     inkscape:deskcolor="#d1d1d1"
     inkscape:document-units="mm"
     inkscape:zoom="0.93355356"
     inkscape:cx="182.09989"
     inkscape:cy="157.99843"
     inkscape:window-width="1680"
     inkscape:window-height="979"
     inkscape:window-x="-8"
     inkscape:window-y="-8"
     inkscape:window-maximized="1"
     inkscape:current-layer="layer1"
     showgrid="false" />
  <defs
     id="defs1" />
  <g
     inkscape:label="Layer 1"
     inkscape:groupmode="layer"
     id="layer1"
     style="fill:#97cc04;fill-opacity:1"
     transform="translate(0,-154.4367)">
    <path
       style="opacity:0.2;fill:#cc9904;fill-opacity:1;stroke:#000000;stroke-width:0;stroke-linecap:square;stroke-miterlimit:2.6;paint-order:stroke fill markers"
       d="m -5.9517206,232.64889 c 0,0 23.9277316,-28.46238 58.9357136,-24.13404 37.166449,4.59521 69.469277,-11.73742 92.862117,-18.25943 22.98747,-6.40898 47.09759,-8.98241 71.14617,-4.5735 0,-16.4332 -7.7696,-11.97078 -7.7696,-11.97078 0,0 -24.83496,-4.31165 -43.2722,-1.10517 -18.43725,3.20647 -68.976105,13.35937 -93.024686,8.95046 -24.048582,-4.4089 -49.100201,-18.65536 -79.9625493,-3.7969 0.4008097,37.2753 1.0850351,54.88936 1.0850347,54.88936 z"
       id="path4"
       sodipodi:nodetypes="cssccsscc" />
    <path
       style="opacity:0.3;fill:#bacc04;fill-opacity:1;stroke:#000000;stroke-width:0;stroke-linecap:square;stroke-miterlimit:2.6;paint-order:stroke fill markers"
       d="m -1.4170763,221.02886 c 0,0 24.4945623,-22.79407 59.5025443,-18.46573 37.166449,4.59521 69.469272,-11.73742 92.862112,-18.25943 22.98747,-6.40898 39.44538,-7.56533 63.49396,-3.15642 0,-16.4332 -0.11739,-13.38786 -0.11739,-13.38786 0,0 -24.83496,-4.31165 -43.2722,-1.10517 -18.43725,3.20647 -68.9761,13.35937 -93.024681,8.95046 -24.048582,-4.4089 -49.100201,-18.65536 -79.9625495,-3.7969 0.4008097,37.2753 0.5182046,49.22105 0.5182042,49.22105 z"
       id="path1"
       sodipodi:nodetypes="cssccsscc" />
    <path
       style="opacity:0.5;fill:#b8cc04;fill-opacity:1;stroke:#000000;stroke-width:0;stroke-linecap:square;stroke-miterlimit:2.6;paint-order:stroke fill markers"
       d="m 0,207.42493 c 0,0 18.826257,-19.10967 53.834239,-14.78133 37.166449,4.59521 66.068291,-10.03693 89.461131,-16.55894 22.98747,-6.40898 42.27953,-9.83265 66.32811,-5.42374 0,-16.4332 -0.11739,-13.38786 -0.11739,-13.38786 0,0 -24.83496,-4.31165 -43.2722,-1.10517 -18.43725,3.20647 -68.976099,13.35937 -93.024681,8.95046 C 49.160627,160.70945 30.910974,146.46299 0.0486264,161.32145 0.44943609,198.59675 0,207.42493 0,207.42493 Z"
       id="path3"
       sodipodi:nodetypes="cssccsscc" />
    <path
       style="display:inline;fill:#97cc04;fill-opacity:1;stroke:#000000;stroke-width:0;stroke-linecap:square;stroke-miterlimit:2.6;paint-order:stroke fill markers"
       d="m 0,211.39274 c 0,0 18.826257,-19.10967 53.834239,-14.78133 37.166449,4.59521 66.068291,-10.03693 89.461131,-16.55894 22.98747,-6.40898 42.27953,-9.83265 66.32811,-5.42374 0,-16.4332 -0.11739,-13.38786 -0.11739,-13.38786 0,0 -24.83496,-4.31165 -43.2722,-1.10517 -18.43725,3.20647 -68.976099,13.35937 -93.024681,8.95046 C 49.160627,164.67726 30.910974,150.4308 0.0486264,165.28926 0.44943609,202.56456 0,211.39274 0,211.39274 Z"
       id="path2"
       sodipodi:nodetypes="cssccsscc" />
  </g>
</svg>
